<?xml version="1.0" encoding="UTF-8"?>
<!DOCTYPE svg PUBLIC "-//W3C//DTD SVG 1.0//EN" "http://www.w3.org/TR/2001/REC-SVG-20010904/DTD/svg10.dtd">
<!-- Creator: CorelDRAW X7 -->
<svg xmlns="http://www.w3.org/2000/svg" xml:space="preserve" width="3.35in" height="2.01399in" version="1.0" style="shape-rendering:geometricPrecision; text-rendering:geometricPrecision; image-rendering:optimizeQuality; fill-rule:evenodd; clip-rule:evenodd"
viewBox="0 0 3350 2014"
 xmlns:xlink="http://www.w3.org/1999/xlink">
 <defs>
  <style type="text/css">
   <![CDATA[
    .fil5 {fill:none}
    .fil35 {fill:#FFCF87}
    .fil36 {fill:#FFCD82}
    .fil37 {fill:#FFCC7F}
    .fil38 {fill:#FFCA7A}
    .fil39 {fill:#FFC978}
    .fil40 {fill:#FFC773}
    .fil41 {fill:#FFC56E}
    .fil42 {fill:#FFC46B}
    .fil43 {fill:#FFC266}
    .fil44 {fill:#FFC061}
    .fil45 {fill:#FFBF5E}
    .fil46 {fill:#FFBD59}
    .fil47 {fill:#FAB855}
    .fil48 {fill:#F5B34F}
    .fil49 {fill:#F2AE48}
    .fil50 {fill:#EDAA45}
    .fil51 {fill:#E8A43F}
    .fil52 {fill:#E6A13A}
    .fil53 {fill:#DB9730}
    .fil54 {fill:#D9942B}
    .fil55 {fill:#D48F28}
    .fil56 {fill:#CF8A23}
    .fil57 {fill:#CC8821}
    .fil58 {fill:#C7831C}
    .fil59 {fill:#C27E18}
    .fil60 {fill:#BF7B15}
    .fil61 {fill:#BA7611}
    .fil62 {fill:#B5720D}
    .fil63 {fill:#AD6B07}
    .fil0 {fill:#6D779C}
    .fil1 {fill:#6A759C}
    .fil2 {fill:#69749C}
    .fil3 {fill:#67729C}
    .fil4 {fill:#646F99}
    .fil6 {fill:#626E99}
    .fil7 {fill:#616D99}
    .fil8 {fill:#5F6B99}
    .fil9 {fill:#5C6896}
    .fil10 {fill:#5A6796}
    .fil11 {fill:#586696}
    .fil12 {fill:#576596}
    .fil13 {fill:#546294}
    .fil14 {fill:#515F91}
    .fil15 {fill:#4F5C8F}
    .fil16 {fill:#4C5A8C}
    .fil17 {fill:#48568A}
    .fil18 {fill:#455387}
    .fil19 {fill:#425185}
    .fil20 {fill:#404E82}
    .fil21 {fill:#3D4C80}
    .fil22 {fill:#3B497D}
    .fil30 {fill:#38467A}
    .fil23 {fill:#364478}
    .fil24 {fill:#334275}
    .fil25 {fill:#324073}
    .fil26 {fill:#2F3D70}
    .fil27 {fill:#2D3B6E}
    .fil28 {fill:#2B396B}
    .fil29 {fill:#293769}
    .fil64 {fill:#0E1326}
    .fil65 {fill:#11172E}
    .fil69 {fill:#161E3D}
    .fil34 {fill:#182142}
    .fil66 {fill:#1A2347}
    .fil33 {fill:#1E2952}
    .fil68 {fill:#1E2A54}
    .fil32 {fill:#202C59}
    .fil31 {fill:#233061}
    .fil67 {fill:#243163}
    .fil72 {fill:#FEFEFE;fill-opacity:0.721569}
    .fil70 {fill:#364A96}
    .fil71 {fill:#FF9B05}
   ]]>
  </style>
 </defs>
 <g id="Layer_x0020_1">
  <metadata id="CorelCorpID_0Corel-Layer"/>
  <g id="_2192249959296">
   <path class="fil0" d="M2608 60l1 -60 -14 1 -14 2 -16 2 -1 61 16 -3 15 -1 13 -2z"/>
   <path class="fil1" d="M2564 66l1 -61 -16 3 -17 3 -1 60 17 -3 16 -2z"/>
   <path class="fil1" d="M2531 71l1 -60 -17 3 -19 3 -2 61 19 -4 18 -3z"/>
   <path class="fil1" d="M2494 78l2 -61 -19 4 -19 4 -2 61 19 -4 19 -4z"/>
   <path class="fil2" d="M2456 86l2 -61 -20 4 -20 5 -2 61 20 -5 20 -4z"/>
   <path class="fil2" d="M2416 95l2 -61 -20 5 -21 5 -3 60 21 -5 21 -4z"/>
   <path class="fil2" d="M2374 104l3 -60 -20 5 -21 5 -4 61 21 -5 21 -6z"/>
   <path class="fil2" d="M2332 115l4 -61 -21 5 -21 6 -4 61 21 -6 21 -5z"/>
   <path class="fil2" d="M2290 126l4 -61 -20 5 -21 6 -4 61 21 -6 20 -5z"/>
   <path class="fil3" d="M2249 137l4 -61 -20 6 -20 5 -4 61 20 -5 20 -6z"/>
   <path class="fil3" d="M2209 148l4 -61 -19 6 -19 6 -5 61 19 -6 20 -6z"/>
   <path class="fil3" d="M2170 160l5 -61 -19 5 -17 6 -6 61 18 -6 19 -5z"/>
   <path class="fil3" d="M2133 171l6 -61 -17 5 -17 5 -6 62 17 -5 17 -6z"/>
   <path class="fil4" d="M2099 182l6 -62 -15 6 -15 5 -14 5 -6 61 14 -5 15 -5 15 -5z"/>
   <path class="fil4" d="M2055 197l6 -61 -13 4 -11 5 -7 61 12 -4 13 -5z"/>
   <path class="fil5" d="M2608 60l1 -60 -14 1 -14 2 -16 2 -16 3 -17 3 -17 3 -19 3 -19 4 -19 4 -20 4 -20 5 -20 5 -21 5 -20 5 -21 5 -21 5 -21 6 -20 5 -21 6 -20 6 -20 5 -19 6 -19 6 -19 5 -17 6 -17 5 -17 5 -15 6 -15 5 -14 5 -13 4 -11 5 -7 61 12 -4 13 -5 14 -5 15 -5 15 -5 17 -5 17 -6 18 -6 19 -5 19 -6 20 -6 20 -5 20 -6 21 -6 20 -5 21 -6 21 -5 21 -5 21 -6 21 -5 21 -4 20 -5 20 -4 19 -4 19 -4 19 -4 18 -3 17 -3 16 -2 16 -3 15 -1 13 -2z"/>
   <path class="fil6" d="M2030 206l7 -61 -46 18 -7 62 46 -19z"/>
   <path class="fil6" d="M1984 225l7 -62 -45 18 -8 62 46 -18z"/>
   <path class="fil6" d="M1938 243l8 -62 -45 18 -7 62 44 -18z"/>
   <path class="fil6" d="M1894 261l7 -62 -43 18 -8 63 44 -19z"/>
   <path class="fil7" d="M1850 280l8 -63 -42 19 -9 62 43 -18z"/>
   <path class="fil7" d="M1807 298l9 -62 -42 18 -9 63 42 -19z"/>
   <path class="fil7" d="M1765 317l9 -63 -41 19 -10 63 42 -19z"/>
   <path class="fil8" d="M1723 336l10 -63 -40 19 -10 63 40 -19z"/>
   <path class="fil8" d="M1683 355l10 -63 -40 19 -10 64 40 -20z"/>
   <path class="fil8" d="M1643 375l10 -64 -38 20 -11 63 39 -19z"/>
   <path class="fil9" d="M1604 394l11 -63 -38 20 -11 64 38 -21z"/>
   <path class="fil10" d="M1566 415l11 -64 -37 20 -12 64 38 -20z"/>
   <path class="fil10" d="M1528 435l12 -64 -37 21 -12 65 37 -22z"/>
   <path class="fil11" d="M1491 457l12 -65 -36 22 -12 64 36 -21z"/>
   <path class="fil12" d="M1455 478l12 -64 -36 22 -12 65 36 -23z"/>
   <path class="fil12" d="M1419 501l12 -65 -35 23 -12 65 35 -23z"/>
   <path class="fil13" d="M1384 524l12 -65 -34 24 -13 65 35 -24z"/>
   <path class="fil14" d="M1349 548l13 -65 -34 24 -13 65 34 -24z"/>
   <path class="fil15" d="M1315 572l13 -65 -33 25 -14 65 34 -25z"/>
   <path class="fil16" d="M1281 597l14 -65 -33 26 -14 66 33 -27z"/>
   <path class="fil17" d="M1248 624l14 -66 -33 26 -14 67 33 -27z"/>
   <path class="fil18" d="M1215 651l14 -67 -32 28 -15 67 33 -28z"/>
   <path class="fil19" d="M1182 679l15 -67 -31 29 -16 67 32 -29z"/>
   <path class="fil20" d="M1150 708l16 -67 -32 30 -15 67 31 -30z"/>
   <path class="fil21" d="M1119 738l15 -67 -31 30 -16 68 32 -31z"/>
   <path class="fil22" d="M1087 769l16 -68 -30 32 -17 68 31 -32z"/>
   <path class="fil23" d="M1056 801l17 -68 -31 33 -16 68 30 -33z"/>
   <path class="fil24" d="M1026 834l16 -68 -30 35 -17 68 31 -35z"/>
   <path class="fil25" d="M995 869l17 -68 -30 35 -17 69 30 -36z"/>
   <path class="fil26" d="M965 905l17 -69 -30 37 -17 69 30 -37z"/>
   <path class="fil27" d="M935 942l17 -69 -29 38 -18 70 30 -39z"/>
   <path class="fil28" d="M905 981l18 -70 -30 40 -18 70 30 -40z"/>
   <path class="fil5" d="M2030 206l7 -61 -46 18 -45 18 -45 18 -43 18 -42 19 -42 18 -41 19 -40 19 -40 19 -38 20 -38 20 -37 20 -37 21 -36 22 -36 22 -35 23 -34 24 -34 24 -33 25 -33 26 -33 26 -32 28 -31 29 -32 30 -31 30 -30 32 -31 33 -30 35 -30 35 -30 37 -29 38 -30 40 -18 70 30 -40 30 -39 30 -37 30 -36 31 -35 30 -33 31 -32 32 -31 31 -30 32 -29 33 -28 33 -27 33 -27 34 -25 34 -24 35 -24 35 -23 36 -23 36 -21 37 -22 38 -20 38 -21 39 -19 40 -20 40 -19 42 -19 42 -19 43 -18 44 -19 44 -18 46 -18 46 -19z"/>
   <path class="fil29" d="M875 1021l18 -70 -4 6 -5 7 -4 6 -5 6 -4 6 -5 7 -18 70 5 -6 4 -7 5 -6 4 -6 5 -7 4 -6z"/>
   <path class="fil20" d="M848 1059l18 -70 -5 6 -5 5 -5 6 -6 5 -5 5 -6 4 -19 71 6 -5 6 -5 5 -5 6 -5 5 -6 5 -6z"/>
   <path class="fil6" d="M815 1091l19 -71 -7 4 -6 4 -7 3 -7 2 -19 71 7 -3 7 -3 7 -3 6 -4z"/>
   <path class="fil5" d="M875 1021l18 -70 -4 6 -5 7 -4 6 -5 6 -4 6 -5 7 -5 6 -5 5 -5 6 -6 5 -5 5 -6 4 -7 4 -6 4 -7 3 -7 2 -19 71 7 -3 7 -3 7 -3 6 -4 6 -5 6 -5 5 -5 6 -5 5 -6 5 -6 5 -6 4 -7 5 -6 4 -6 5 -7 4 -6z"/>
   <path class="fil18" d="M788 1104l19 -71 -10 -7 -12 -9 -12 -13 -19 70 12 13 12 10 10 7z"/>
   <path class="fil24" d="M754 1074l19 -70 -14 -15 -15 -18 -19 70 15 18 14 15z"/>
   <path class="fil25" d="M725 1041l19 -70 -16 -21 -19 70 16 21z"/>
   <path class="fil26" d="M709 1020l19 -70 -16 -22 -20 70 17 22z"/>
   <path class="fil26" d="M692 998l20 -70 -18 -24 -20 69 18 25z"/>
   <path class="fil27" d="M674 973l20 -69 -18 -26 -20 69 18 26z"/>
   <path class="fil27" d="M656 947l20 -69 -18 -27 -21 69 19 27z"/>
   <path class="fil28" d="M637 920l21 -69 -19 -28 -21 68 19 29z"/>
   <path class="fil27" d="M618 891l21 -68 -20 -30 -21 69 20 29z"/>
   <path class="fil28" d="M598 862l21 -69 -20 -30 -21 68 20 31z"/>
   <path class="fil28" d="M578 831l21 -68 -20 -30 -21 67 20 31z"/>
   <path class="fil28" d="M558 800l21 -67 -20 -31 -21 67 20 31z"/>
   <path class="fil28" d="M538 769l21 -67 -20 -31 -21 67 20 31z"/>
   <path class="fil28" d="M518 738l21 -67 -20 -31 -22 67 21 31z"/>
   <path class="fil28" d="M497 707l22 -67 -19 -30 -22 66 19 31z"/>
   <path class="fil28" d="M478 676l22 -66 -20 -30 -22 66 20 30z"/>
   <path class="fil28" d="M458 646l22 -66 -19 -29 -22 66 19 29z"/>
   <path class="fil27" d="M439 617l22 -66 -18 -28 -23 65 19 29z"/>
   <path class="fil28" d="M420 588l23 -65 -18 -27 -23 66 18 26z"/>
   <path class="fil28" d="M402 562l23 -66 -17 -25 -23 65 17 26z"/>
   <path class="fil27" d="M385 536l23 -65 -17 -23 -23 64 17 24z"/>
   <path class="fil26" d="M368 512l23 -64 -15 -22 -23 65 15 21z"/>
   <path class="fil25" d="M353 491l23 -65 -15 -19 -13 -17 -24 64 14 17 15 20z"/>
   <path class="fil30" d="M324 454l24 -64 -12 -15 -11 -11 -10 -9 -24 64 10 9 11 11 12 15z"/>
   <path class="fil2" d="M291 419l24 -64 -8 -5 -6 -2 -24 64 6 1 8 6z"/>
   <path class="fil5" d="M788 1104l19 -71 -10 -7 -12 -9 -12 -13 -14 -15 -15 -18 -16 -21 -16 -22 -18 -24 -18 -26 -18 -27 -19 -28 -20 -30 -20 -30 -20 -30 -20 -31 -20 -31 -20 -31 -19 -30 -20 -30 -19 -29 -18 -28 -18 -27 -17 -25 -17 -23 -15 -22 -15 -19 -13 -17 -12 -15 -11 -11 -10 -9 -8 -5 -6 -2 -24 64 6 1 8 6 10 9 11 11 12 15 14 17 15 20 15 21 17 24 17 26 18 26 19 29 19 29 20 30 19 31 21 31 20 31 20 31 20 31 20 31 20 29 19 29 19 27 18 26 18 25 17 22 16 21 15 18 14 15 12 13 12 10 10 7z"/>
   <path class="fil1" d="M277 412l24 -64 -12 1 -12 2 -12 3 -25 64 12 -3 13 -3 12 0z"/>
   <path class="fil8" d="M240 418l25 -64 -13 5 -12 6 -12 7 -25 64 13 -7 12 -6 12 -5z"/>
   <path class="fil15" d="M203 436l25 -64 -12 8 -12 9 -12 10 -25 64 12 -10 12 -9 12 -8z"/>
   <path class="fil21" d="M167 463l25 -64 -11 10 -12 12 -11 12 -25 64 11 -12 12 -11 11 -11z"/>
   <path class="fil26" d="M133 497l25 -64 -11 12 -11 13 -25 65 11 -13 11 -13z"/>
   <path class="fil29" d="M111 523l25 -65 -10 14 -10 14 -26 65 10 -14 11 -14z"/>
   <path class="fil31" d="M90 551l26 -65 -10 14 -9 14 -26 66 9 -15 10 -14z"/>
   <path class="fil32" d="M71 580l26 -66 -9 15 -8 14 -26 66 8 -15 9 -14z"/>
   <path class="fil33" d="M54 609l26 -66 -8 15 -7 14 -7 15 -27 66 7 -15 8 -14 8 -15z"/>
   <path class="fil34" d="M31 653l27 -66 -6 14 -6 14 -27 66 6 -14 6 -14z"/>
   <path class="fil5" d="M277 412l24 -64 -12 1 -12 2 -12 3 -13 5 -12 6 -12 7 -12 8 -12 9 -12 10 -11 10 -12 12 -11 12 -11 12 -11 13 -10 14 -10 14 -10 14 -9 14 -9 15 -8 14 -8 15 -7 14 -7 15 -6 14 -6 14 -27 66 6 -14 6 -14 7 -15 8 -14 8 -15 8 -15 9 -14 9 -15 10 -14 10 -14 11 -14 11 -13 11 -13 11 -12 12 -11 11 -11 12 -10 12 -9 12 -8 13 -7 12 -6 12 -5 12 -3 13 -3 12 0z"/>
   <path class="fil35" d="M3350 66l-7 -60 -13 1 -15 2 -15 2 6 60 16 -2 14 -2 14 -1z"/>
   <path class="fil36" d="M3306 71l-6 -60 -16 2 -17 3 6 60 17 -2 16 -3z"/>
   <path class="fil36" d="M3273 76l-6 -60 -18 3 -18 4 5 60 19 -3 18 -4z"/>
   <path class="fil36" d="M3236 83l-5 -60 -19 4 -20 4 6 60 19 -4 19 -4z"/>
   <path class="fil37" d="M3198 91l-6 -60 -19 4 -20 4 4 61 21 -5 20 -4z"/>
   <path class="fil37" d="M3157 100l-4 -61 -21 5 -20 5 4 61 21 -5 20 -5z"/>
   <path class="fil37" d="M3116 110l-4 -61 -21 5 -21 5 4 61 21 -5 21 -5z"/>
   <path class="fil37" d="M3074 120l-4 -61 -21 6 -20 5 3 61 21 -5 21 -6z"/>
   <path class="fil37" d="M3032 131l-3 -61 -21 6 -20 5 3 62 20 -6 21 -6z"/>
   <path class="fil38" d="M2991 143l-3 -62 -21 6 -19 6 2 61 20 -6 21 -5z"/>
   <path class="fil38" d="M2950 154l-2 -61 -20 5 -19 6 3 61 19 -5 19 -6z"/>
   <path class="fil38" d="M2912 165l-3 -61 -18 6 -18 5 2 62 18 -6 19 -6z"/>
   <path class="fil38" d="M2875 177l-2 -62 -17 6 -17 5 2 61 17 -5 17 -5z"/>
   <path class="fil39" d="M2841 187l-2 -61 -15 5 -15 5 -14 5 2 62 14 -5 14 -5 16 -6z"/>
   <path class="fil39" d="M2797 203l-2 -62 -12 5 -12 4 1 62 12 -5 13 -4z"/>
   <path class="fil5" d="M3350 66l-7 -60 -13 1 -15 2 -15 2 -16 2 -17 3 -18 3 -18 4 -19 4 -20 4 -19 4 -20 4 -21 5 -20 5 -21 5 -21 5 -21 6 -20 5 -21 6 -20 5 -21 6 -19 6 -20 5 -19 6 -18 6 -18 5 -17 6 -17 5 -15 5 -15 5 -14 5 -12 5 -12 4 1 62 12 -5 13 -4 14 -5 14 -5 16 -6 17 -5 17 -5 18 -6 19 -6 19 -5 19 -6 20 -6 21 -5 20 -6 21 -6 21 -5 21 -6 21 -5 21 -5 21 -5 20 -5 21 -5 20 -4 19 -4 19 -4 19 -3 18 -4 17 -2 16 -3 16 -2 14 -2 14 -1z"/>
   <path class="fil40" d="M2772 212l-1 -62 -46 18 1 62 46 -18z"/>
   <path class="fil40" d="M2726 230l-1 -62 -45 18 0 63 46 -19z"/>
   <path class="fil40" d="M2680 249l0 -63 -44 19 0 62 44 -18z"/>
   <path class="fil40" d="M2636 267l0 -62 -43 18 -1 62 44 -18z"/>
   <path class="fil41" d="M2592 285l1 -62 -42 18 -2 63 43 -19z"/>
   <path class="fil41" d="M2549 304l2 -63 -42 19 -2 63 42 -19z"/>
   <path class="fil41" d="M2507 323l2 -63 -40 19 -3 63 41 -19z"/>
   <path class="fil42" d="M2466 342l3 -63 -40 19 -3 63 40 -19z"/>
   <path class="fil42" d="M2426 361l3 -63 -39 19 -3 64 39 -20z"/>
   <path class="fil43" d="M2387 381l3 -64 -38 20 -4 64 39 -20z"/>
   <path class="fil43" d="M2348 401l4 -64 -38 20 -4 64 38 -20z"/>
   <path class="fil44" d="M2310 421l4 -64 -37 21 -4 64 37 -21z"/>
   <path class="fil44" d="M2273 442l4 -64 -36 21 -4 64 36 -21z"/>
   <path class="fil45" d="M2237 463l4 -64 -35 22 -5 64 36 -22z"/>
   <path class="fil46" d="M2201 485l5 -64 -35 22 -6 65 36 -23z"/>
   <path class="fil47" d="M2165 508l6 -65 -35 23 -5 65 34 -23z"/>
   <path class="fil48" d="M2131 531l5 -65 -34 24 -5 65 34 -24z"/>
   <path class="fil48" d="M2097 555l5 -65 -33 24 -6 66 34 -25z"/>
   <path class="fil49" d="M2063 580l6 -66 -33 25 -6 66 33 -25z"/>
   <path class="fil50" d="M2030 605l6 -66 -32 26 -7 66 33 -26z"/>
   <path class="fil51" d="M1997 631l7 -66 -32 27 -7 67 32 -28z"/>
   <path class="fil52" d="M1965 659l7 -67 -32 28 -7 67 32 -28z"/>
   <path class="fil53" d="M1933 687l7 -67 -31 29 -8 67 32 -29z"/>
   <path class="fil54" d="M1901 716l8 -67 -31 30 -8 67 31 -30z"/>
   <path class="fil55" d="M1870 746l8 -67 -31 31 -8 67 31 -31z"/>
   <path class="fil56" d="M1839 777l8 -67 -30 32 -9 68 31 -33z"/>
   <path class="fil57" d="M1808 810l9 -68 -30 33 -9 68 30 -33z"/>
   <path class="fil58" d="M1778 843l9 -68 -30 34 -10 69 31 -35z"/>
   <path class="fil59" d="M1747 878l10 -69 -30 36 -10 69 30 -36z"/>
   <path class="fil60" d="M1717 914l10 -69 -30 37 -9 69 29 -37z"/>
   <path class="fil61" d="M1688 951l9 -69 -29 38 -10 70 30 -39z"/>
   <path class="fil62" d="M1658 990l10 -70 -29 40 -11 70 30 -40z"/>
   <path class="fil5" d="M2772 212l-1 -62 -46 18 -45 18 -44 19 -43 18 -42 18 -42 19 -40 19 -40 19 -39 19 -38 20 -38 20 -37 21 -36 21 -35 22 -35 22 -35 23 -34 24 -33 24 -33 25 -32 26 -32 27 -32 28 -31 29 -31 30 -31 31 -30 32 -30 33 -30 34 -30 36 -30 37 -29 38 -29 40 -11 70 30 -40 30 -39 29 -37 30 -36 31 -35 30 -33 31 -33 31 -31 31 -30 32 -29 32 -28 32 -28 33 -26 33 -25 34 -25 34 -24 34 -23 36 -23 36 -22 36 -21 37 -21 38 -20 39 -20 39 -20 40 -19 41 -19 42 -19 43 -19 44 -18 44 -18 46 -19 46 -18z"/>
   <path class="fil63" d="M1628 1030l11 -70 -5 7 -5 7 -6 8 -6 9 -7 8 -10 71 6 -9 6 -9 6 -8 5 -7 5 -7z"/>
   <path class="fil57" d="M1600 1070l10 -71 -6 9 -7 8 -7 8 -7 7 -11 70 7 -7 7 -7 7 -9 7 -8z"/>
   <path class="fil37" d="M1572 1101l11 -70 -7 6 -6 4 -7 4 -6 1 -6 0 -5 -3 -5 -5 -11 71 4 5 6 3 6 0 6 -2 6 -3 7 -5 7 -6z"/>
   <path class="fil59" d="M1530 1109l11 -71 -268 -363 -14 68 271 366z"/>
   <path class="fil5" d="M1628 1030l11 -70 -5 7 -5 7 -6 8 -6 9 -7 8 -6 9 -7 8 -7 8 -7 7 -7 6 -6 4 -7 4 -6 1 -6 0 -5 -3 -5 -5 -268 -363 -14 68 271 366 4 5 6 3 6 0 6 -2 6 -3 7 -5 7 -6 7 -7 7 -7 7 -9 7 -8 6 -9 6 -9 6 -8 5 -7 5 -7z"/>
   <path class="fil59" d="M1259 743l14 -68 -229 274 -17 70 232 -276z"/>
   <path class="fil5" d="M1259 743l14 -68 -229 274 -17 70 232 -276z"/>
   <path class="fil64" d="M1024 643l16 -66 3 -20 2 -19 -16 65 -2 20 -3 20z"/>
   <path class="fil65" d="M1029 603l16 -65 0 -20 -2 -20 -17 66 2 19 1 20z"/>
   <path class="fil66" d="M1026 564l17 -66 -4 -19 -5 -19 -17 65 6 19 3 20z"/>
   <path class="fil67" d="M1017 525l17 -65 -8 -18 -9 -17 -17 64 10 18 7 18z"/>
   <path class="fil24" d="M1000 489l17 -64 -11 -17 -13 -15 -17 64 13 15 11 17z"/>
   <path class="fil15" d="M976 457l17 -64 -15 -14 -17 -13 -17 64 17 13 15 14z"/>
   <path class="fil7" d="M944 430l17 -64 -19 -12 -21 -9 -17 64 21 9 19 12z"/>
   <path class="fil3" d="M904 409l17 -64 -23 -8 -17 64 23 8z"/>
   <path class="fil2" d="M881 401l17 -64 -25 -5 -18 63 26 6z"/>
   <path class="fil0" d="M855 395l18 -63 -27 -4 -18 64 27 3z"/>
   <path class="fil0" d="M828 392l18 -64 -29 -1 -19 63 30 2z"/>
   <path class="fil5" d="M1024 643l16 -66 3 -20 2 -19 0 -20 -2 -20 -4 -19 -5 -19 -8 -18 -9 -17 -11 -17 -13 -15 -15 -14 -17 -13 -19 -12 -21 -9 -23 -8 -25 -5 -27 -4 -29 -1 -19 63 30 2 27 3 26 6 23 8 21 9 19 12 17 13 15 14 13 15 11 17 10 18 7 18 6 19 3 20 2 19 1 20 -2 20 -3 20z"/>
   <path class="fil0" d="M798 390l19 -63 -9 0 -9 1 -9 1 -9 2 -9 2 -20 64 9 -2 10 -2 9 -2 9 0 9 -1z"/>
   <path class="fil6" d="M752 397l20 -64 -9 3 -9 3 -8 4 -9 4 -8 4 -19 64 8 -5 8 -4 9 -3 9 -3 8 -3z"/>
   <path class="fil14" d="M710 415l19 -64 -8 5 -7 5 -8 5 -7 6 -7 6 -20 64 7 -6 7 -6 8 -5 8 -5 8 -5z"/>
   <path class="fil24" d="M672 442l20 -64 -7 7 -6 6 -6 7 -6 8 -6 7 -20 65 6 -8 5 -7 7 -7 6 -7 7 -7z"/>
   <path class="fil68" d="M641 478l20 -65 -5 8 -4 8 -5 8 -4 8 -3 9 -21 65 4 -9 4 -8 4 -9 5 -8 5 -7z"/>
   <path class="fil69" d="M619 519l21 -65 -3 8 -21 65 3 -8z"/>
   <path class="fil5" d="M798 390l19 -63 -9 0 -9 1 -9 1 -9 2 -9 2 -9 3 -9 3 -8 4 -9 4 -8 4 -8 5 -7 5 -8 5 -7 6 -7 6 -7 7 -6 6 -6 7 -6 8 -6 7 -5 8 -4 8 -5 8 -4 8 -3 9 -3 8 -21 65 3 -8 4 -9 4 -8 4 -9 5 -8 5 -7 6 -8 5 -7 7 -7 6 -7 7 -7 7 -6 7 -6 8 -5 8 -5 8 -5 8 -5 8 -4 9 -3 9 -3 8 -3 9 -2 10 -2 9 -2 9 0 9 -1z"/>
  </g>
  <g id="_2192249958496">
   <path class="fil70" d="M607 582c0,143 92,234 202,234 273,0 315,-426 -11,-426 -100,0 -191,92 -191,192z"/>
   <path class="fil71" d="M1519 2014c42,0 160,-244 188,-291 190,-313 257,-417 477,-705 190,-249 320,-399 567,-614 78,-67 182,-141 276,-193 55,-30 97,-56 154,-80 53,-22 106,-41 169,-65 -141,12 -459,99 -578,146 -501,196 -828,383 -1144,818 -24,33 -74,113 -98,79l-271 -366 -232 276c159,286 348,761 387,855 35,86 46,140 105,140z"/>
   <path class="fil70" d="M777 2009c43,0 160,-244 188,-291 190,-313 257,-418 477,-705 190,-250 320,-400 568,-614 78,-68 181,-141 275,-193 55,-31 97,-57 154,-80 53,-22 106,-41 169,-66 -140,12 -458,100 -578,146 -501,196 -838,380 -1155,815 -24,33 -47,72 -87,83 -100,-53 -451,-692 -511,-692 -129,0 -277,254 -277,351 0,64 62,32 106,32 138,0 510,937 566,1074 36,85 46,140 105,140z"/>
  </g>
  <path class="fil72" d="M772 284l4 116 87 -32 -85 40 51 97 -57 -92 -56 92 51 -97 -86 -40 88 32 3 -116z"/>
  <path class="fil72" d="M262 309l3 117 88 -32 -86 40 51 96 -56 -92 -56 92 51 -96 -86 -40 88 32 3 -117z"/>
 </g>
</svg>
